<?xml version="1.0" standalone="no"?>
<!DOCTYPE svg PUBLIC "-//W3C//DTD SVG 20010904//EN"
 "http://www.w3.org/TR/2001/REC-SVG-20010904/DTD/svg10.dtd">
<svg version="1.0" xmlns="http://www.w3.org/2000/svg"
 width="200.000000pt" height="200.000000pt" viewBox="0 0 200.000000 200.000000"
 preserveAspectRatio="xMidYMid meet">
<metadata>
Created by potrace 1.14, written by Peter Selinger 2001-2017
</metadata>
<g transform="translate(0.000000,200.000000) scale(0.100000,-0.100000)"
fill="#000000" stroke="none">
<path d="M912 1919 c-16 -6 -16 -7 0 -14 9 -4 34 -4 55 -1 21 3 42 5 46 6 5 0
5 4 2 10 -6 10 -74 9 -103 -1z"/>
<path d="M1074 1919 c-7 -12 7 -15 61 -18 33 -2 47 1 40 7 -12 12 -95 21 -101
11z"/>
<path d="M783 1898 c-18 -6 -33 -15 -33 -21 0 -5 6 -7 14 -4 8 3 31 9 50 13
20 3 36 10 36 15 0 11 -26 10 -67 -3z"/>
<path d="M1236 1892 c-3 -5 14 -15 39 -21 53 -13 55 -13 55 -2 0 5 -12 11 -27
14 -16 3 -35 8 -44 12 -10 3 -20 2 -23 -3z"/>
<path d="M850 1864 c-47 -20 -34 -25 25 -9 28 8 48 14 45 15 -25 7 -41 6 -70
-6z"/>
<path d="M981 1872 c-23 -8 -10 -17 21 -15 18 1 46 2 62 2 16 1 27 4 23 7 -7
7 -89 12 -106 6z"/>
<path d="M645 1848 c-22 -12 -35 -23 -29 -25 17 -6 85 27 79 37 -7 12 -2 13
-50 -12z"/>
<path d="M1136 1859 c3 -5 14 -9 25 -9 11 0 29 -5 40 -11 11 -6 25 -8 32 -6
15 6 -39 28 -75 32 -15 1 -25 -1 -22 -6z"/>
<path d="M735 1825 c-25 -21 -26 -23 -7 -19 23 6 48 31 40 39 -3 3 -18 -6 -33
-20z"/>
<path d="M1380 1842 c0 -13 100 -73 111 -66 6 3 -4 15 -23 28 -42 28 -88 48
-88 38z"/>
<path d="M1290 1823 c8 -3 32 -14 53 -25 20 -10 37 -14 37 -9 0 10 -73 41 -93
40 -7 0 -6 -3 3 -6z"/>
<path d="M516 1777 c-20 -16 -25 -26 -18 -31 7 -4 12 -4 12 1 0 4 14 14 30 21
17 8 28 18 24 23 -8 14 -16 11 -48 -14z"/>
<path d="M288 1701 c-82 -86 -156 -185 -151 -203 2 -4 -2 -8 -8 -8 -6 0 -9 -7
-5 -15 3 -8 -1 -18 -8 -22 -32 -19 -82 -161 -107 -308 -14 -77 -4 -296 16
-377 49 -194 132 -338 275 -479 93 -90 157 -137 255 -186 74 -37 191 -76 204
-69 5 4 12 2 15 -3 13 -20 140 -34 270 -28 146 6 257 32 379 90 l68 32 -39 46
-39 47 -67 -30 c-37 -16 -77 -31 -89 -34 -24 -4 -59 -11 -97 -20 -51 -11 -205
-10 -274 2 -113 21 -142 30 -241 75 -27 12 -52 23 -55 23 -23 5 -186 130 -216
165 -12 15 -33 38 -45 53 -13 15 -46 71 -74 125 -27 54 -52 100 -55 103 -3 3
-7 14 -8 25 -2 11 -7 25 -11 30 -8 10 -20 55 -42 155 -24 107 -5 344 32 409
21 38 49 123 43 133 -4 7 -2 8 4 4 7 -4 12 -3 12 2 0 8 27 45 73 102 7 8 26
33 42 55 38 51 43 56 83 84 l32 22 -32 45 c-17 24 -36 44 -43 44 -6 0 -49 -40
-97 -89z m-122 -1186 c-3 -9 1 -18 8 -21 8 -3 17 -13 21 -22 4 -12 -1 -10 -18
6 -24 22 -32 52 -14 52 5 0 6 -7 3 -15z"/>
<path d="M582 1759 c-48 -35 -56 -48 -14 -24 44 26 66 44 61 50 -3 3 -24 -9
-47 -26z"/>
<path d="M1469 1729 c19 -11 40 -27 48 -35 18 -17 24 -18 18 -1 -7 16 -67 57
-86 57 -8 0 1 -9 20 -21z"/>
<path d="M1540 1743 c0 -9 79 -83 89 -83 15 0 20 13 8 24 -54 51 -97 77 -97
59z"/>
<path d="M1607 1628 c11 -13 27 -33 35 -46 9 -13 18 -20 21 -15 6 9 -56 83
-69 83 -4 0 2 -10 13 -22z"/>
<path d="M964 1620 c-107 -31 -140 -64 -106 -109 l19 -26 -58 -115 c-56 -112
-102 -243 -114 -325 -4 -22 -8 -49 -10 -60 -2 -11 -4 -55 -4 -97 -1 -73 -3
-79 -31 -105 -67 -60 2 -73 379 -73 286 0 301 1 301 18 0 26 -32 53 -72 61
l-33 7 -2 84 c-1 47 -10 126 -21 175 -18 82 -22 148 -9 161 3 3 20 7 38 9 19
3 46 7 61 10 30 7 98 69 98 91 0 10 8 13 26 10 20 -4 24 -2 20 10 -3 9 -6 20
-6 26 0 6 -10 8 -24 4 -21 -5 -31 1 -61 41 -21 27 -33 53 -30 63 8 24 -64 93
-131 126 -68 33 -145 38 -230 14z m186 -22 c44 -14 98 -48 129 -81 21 -24 22
-28 11 -64 -26 -80 -84 -184 -131 -234 -40 -43 -49 -60 -49 -90 0 -38 -31 -89
-54 -89 -11 0 -31 49 -41 102 -2 10 5 34 16 52 25 43 9 55 -20 15 -23 -31 -42
-41 -98 -54 -31 -6 -33 -5 -33 20 0 15 8 40 17 56 17 28 33 34 82 30 15 -1 21
2 18 11 -2 8 -20 13 -47 12 -35 -1 -48 -7 -69 -31 -35 -41 -57 -48 -65 -20
-12 44 -5 71 39 155 49 92 54 116 28 130 -40 23 37 76 129 88 24 4 45 8 46 9
5 5 51 -4 92 -17z m201 -214 c23 -34 28 -49 20 -57 -8 -8 -11 -6 -11 6 0 9 -5
17 -11 17 -7 0 -10 -12 -7 -30 5 -31 2 -33 -47 -31 -29 2 -29 1 -11 -14 11 -8
18 -15 15 -15 -2 -1 -21 -3 -43 -6 l-38 -6 18 31 c11 19 26 31 39 31 12 0 26
5 33 12 13 13 17 42 4 34 -4 -2 -13 -2 -19 2 -8 5 -7 16 2 40 8 17 16 32 19
32 3 0 19 -21 37 -46z m-71 -48 c0 -3 -4 -8 -10 -11 -5 -3 -10 -1 -10 4 0 6 5
11 10 11 6 0 10 -2 10 -4z m-424 -161 c-3 -8 -1 -27 5 -42 9 -23 7 -30 -13
-45 -13 -10 -28 -18 -35 -18 -16 0 -36 66 -29 96 5 20 13 24 42 24 28 0 35 -3
30 -15z m318 -45 c20 -139 20 -137 -8 -163 -38 -35 -64 -40 -72 -13 -13 40
-10 61 14 93 14 19 24 49 26 73 1 23 9 46 16 50 18 11 17 13 24 -40z m-177
-20 c9 -35 8 -44 -9 -65 -21 -27 -57 -50 -65 -42 -2 3 -8 21 -13 40 -9 43 12
94 43 100 12 2 24 5 27 6 3 0 11 -17 17 -39z m-232 -40 c-3 -10 -14 -25 -25
-35 -18 -16 -18 -16 -13 7 3 12 10 39 15 58 11 33 11 34 20 11 4 -13 6 -32 3
-41z m120 -33 c5 -28 1 -44 -15 -67 -12 -17 -26 -30 -31 -30 -23 0 -59 55 -59
88 0 15 5 19 20 15 11 -3 31 4 47 15 15 11 29 19 30 18 1 -1 5 -19 8 -39z
m160 -67 c-5 -21 -16 -32 -46 -44 -54 -22 -58 -21 -52 17 2 19 17 44 36 62 31
29 33 29 50 12 13 -13 17 -26 12 -47z m-264 -12 c26 -36 24 -43 -16 -66 -32
-20 -34 -20 -40 -3 -13 42 -8 91 11 106 14 10 20 10 23 2 2 -7 12 -24 22 -39z
m142 -38 c0 -58 -17 -80 -59 -80 -39 0 -39 42 1 86 19 21 35 42 35 47 0 5 5 7
11 5 7 -2 12 -26 12 -58z m287 35 c0 -15 -90 -95 -106 -96 -11 0 -27 -2 -36
-4 -14 -2 -18 3 -17 23 0 15 4 36 8 47 8 19 8 19 18 0 10 -17 15 -18 51 -7 22
7 45 19 52 27 12 15 30 20 30 10z m0 -82 c0 -38 -3 -54 -10 -47 -9 9 -3 104 6
104 2 0 4 -26 4 -57z m-185 -3 c-5 -30 -3 -40 7 -41 15 -1 -41 -28 -60 -29 -9
0 -12 13 -10 41 2 36 6 44 33 55 16 7 32 13 33 14 2 0 1 -18 -3 -40z m-214 -5
c1 -8 3 -19 4 -25 1 -5 3 -15 4 -21 0 -6 10 -9 21 -6 24 6 25 -1 4 -32 -26
-37 -72 -51 -127 -39 l-47 10 22 30 c60 79 116 119 119 83z m363 -37 c13 -64
11 -72 -13 -84 -58 -30 -86 44 -35 91 35 32 40 31 48 -7z m-234 -27 c0 -15 -9
-36 -20 -46 -23 -21 -26 -20 -35 17 -5 19 -1 32 14 47 26 26 41 19 41 -18z
m138 -18 l-3 -48 -66 0 c-41 0 -65 4 -63 10 6 14 41 36 67 41 12 2 30 13 41
24 11 11 22 20 23 20 2 0 2 -21 1 -47z m214 -28 c28 -11 13 -21 -29 -19 -66 3
-64 2 -51 23 11 19 27 18 80 -4z m-422 -9 c0 -11 -19 -15 -25 -6 -3 5 1 10 9
10 9 0 16 -2 16 -4z"/>
<path d="M1676 1622 c-3 -6 9 -25 26 -44 18 -18 40 -45 49 -58 9 -14 20 -22
24 -18 9 9 -34 74 -69 107 -14 13 -26 18 -30 13z"/>
<path d="M1712 1503 c12 -26 53 -109 55 -112 2 -2 6 -2 9 2 8 7 -47 117 -59
117 -5 0 -7 -3 -5 -7z"/>
<path d="M1795 1441 c-3 -6 -1 -11 4 -11 6 0 10 -4 9 -8 -5 -14 36 -82 49 -82
8 0 4 18 -12 52 -25 54 -38 67 -50 49z"/>
<path d="M1801 1346 c-2 -18 34 -116 42 -116 5 0 5 10 2 23 -11 34 -43 103
-44 93z"/>
<path d="M1879 1208 c9 -40 21 -72 26 -70 21 6 -8 142 -30 142 -9 0 -8 -17 4
-72z"/>
<path d="M1855 1133 c3 -10 9 -36 12 -58 6 -43 9 -51 15 -38 8 14 -13 113 -24
113 -6 0 -7 -8 -3 -17z"/>
<path d="M1909 1073 c-4 -43 0 -133 7 -133 12 0 15 128 4 135 -6 4 -10 3 -11
-2z"/>
<path d="M1863 935 c0 -8 4 -15 9 -15 4 0 8 7 8 15 0 8 -4 15 -8 15 -5 0 -9
-7 -9 -15z"/>
<path d="M1862 893 c0 -10 -3 -27 -6 -38 -8 -20 -7 -20 8 -1 18 22 21 56 7 56
-6 0 -9 -8 -9 -17z"/>
<path d="M1892 845 c-1 -14 -10 -50 -20 -80 -11 -31 -15 -58 -10 -61 9 -6 11
-1 33 71 16 55 19 95 7 95 -4 0 -9 -11 -10 -25z"/>
<path d="M1817 725 c-3 -11 -15 -35 -27 -52 -12 -18 -19 -33 -16 -33 11 0 57
81 53 93 -2 6 -6 3 -10 -8z"/>
<path d="M1426 677 c3 -10 9 -15 12 -12 3 3 0 11 -7 18 -10 9 -11 8 -5 -6z"/>
<path d="M1480 682 c0 -6 -8 -13 -17 -15 -16 -4 -16 -5 -1 -6 18 -1 34 16 24
26 -3 4 -6 1 -6 -5z"/>
<path d="M476 648 c3 -5 5 -35 5 -67 0 -54 2 -58 22 -58 20 0 22 4 19 34 -3
27 -1 34 9 31 8 -3 14 -18 14 -36 -1 -33 17 -43 32 -19 16 24 2 69 -20 66 -28
-3 -37 2 -37 26 0 19 4 23 18 18 9 -3 14 -3 10 1 -10 11 -78 15 -72 4z"/>
<path d="M620 654 c-12 -4 -14 -17 -10 -67 4 -55 7 -62 27 -63 19 -1 21 3 16
30 -3 17 -3 28 1 24 4 -3 21 -2 37 4 22 8 28 15 27 35 -3 31 -18 43 -43 32
-11 -4 -15 -8 -10 -8 17 -1 17 -51 0 -51 -10 0 -15 11 -15 35 0 19 -3 34 -7
34 -5 -1 -15 -3 -23 -5z"/>
<path d="M739 646 c-5 -6 -9 -33 -9 -62 0 -48 9 -64 36 -64 2 0 4 27 4 59 0
40 4 61 13 64 19 7 23 -103 5 -115 -9 -5 -7 -8 8 -8 12 0 26 6 32 13 15 17 13
105 -2 114 -16 11 -76 9 -87 -1z"/>
<path d="M918 590 l4 -67 43 -1 c25 -1 47 3 54 11 14 18 20 125 6 123 -24 -4
-36 -20 -35 -44 4 -60 0 -82 -16 -82 -13 0 -15 11 -13 62 3 59 2 62 -22 63
-23 2 -24 0 -21 -65z"/>
<path d="M1049 626 c0 -17 -1 -47 -2 -67 -2 -32 1 -36 22 -35 22 1 23 5 25 66
1 61 0 65 -21 66 -19 2 -23 -3 -24 -30z"/>
<path d="M1124 653 c-7 -2 -9 -16 -5 -36 5 -25 13 -33 36 -37 24 -4 30 -10 30
-30 0 -18 6 -25 21 -26 20 -1 21 4 20 62 0 35 -4 64 -8 64 -5 0 -15 0 -23 0
-11 0 -14 -8 -10 -30 4 -22 1 -30 -10 -30 -10 0 -15 10 -15 29 0 28 -14 42
-36 34z"/>
<path d="M1254 590 c0 -61 2 -68 19 -67 23 2 44 36 28 46 -6 4 -2 12 11 20 19
12 20 11 17 -26 -4 -36 -2 -39 21 -39 24 0 25 2 25 66 0 60 -2 66 -20 64 -11
-1 -24 -3 -28 -3 -5 -1 -7 -9 -5 -18 3 -20 -9 -43 -22 -43 -5 0 -7 14 -5 30 2
17 0 30 -3 31 -4 0 -14 2 -22 4 -13 2 -16 -10 -16 -65z"/>
<path d="M1404 651 c-5 -3 -9 -34 -9 -69 0 -52 3 -62 17 -62 10 0 25 14 34 31
9 19 11 28 4 24 -9 -6 -11 3 -8 33 3 32 0 42 -13 45 -9 3 -21 2 -25 -2z"/>
<path d="M1482 651 c-10 -7 -32 -46 -32 -57 0 -4 6 0 13 9 10 15 12 12 11 -21
-1 -22 -4 -44 -8 -50 -4 -7 3 -10 20 -9 25 2 26 5 27 68 2 64 -5 77 -31 60z"/>
<path d="M561 634 c0 -11 3 -14 6 -6 3 7 2 16 -1 19 -3 4 -6 -2 -5 -13z"/>
<path d="M883 623 c-1 -24 -1 -25 7 -8 11 26 12 35 2 35 -4 0 -8 -12 -9 -27z"/>
<path d="M1815 620 c-4 -16 -10 -30 -14 -30 -11 0 -41 -69 -32 -74 8 -5 44 52
68 107 10 22 10 27 -2 27 -7 0 -16 -13 -20 -30z"/>
<path d="M1696 519 c-35 -38 -44 -57 -20 -41 12 8 68 82 62 82 -2 0 -21 -18
-42 -41z"/>
<path d="M851 526 c-9 -10 -9 -16 -1 -21 6 -4 9 -1 8 6 -2 9 7 13 25 13 30 -1
28 8 -2 13 -11 1 -24 -4 -30 -11z"/>
<path d="M895 461 c-26 -5 -30 -11 -33 -45 -6 -67 4 -86 41 -85 17 1 25 3 16
6 -12 3 -16 18 -18 58 -1 49 1 54 21 57 13 2 19 6 13 9 -5 3 -23 3 -40 0z"/>
<path d="M1018 458 c-9 -5 -5 -8 11 -8 22 0 23 -2 19 -60 -4 -57 -3 -60 19
-60 22 0 23 4 23 64 0 63 0 64 -30 68 -16 3 -35 1 -42 -4z"/>
<path d="M1208 463 c-19 -5 -44 -64 -25 -60 7 1 10 -11 8 -35 -2 -34 0 -38 21
-38 22 0 23 3 22 66 -1 36 -4 66 -5 68 -2 1 -12 1 -21 -1z"/>
<path d="M1688 431 c-44 -48 -52 -61 -39 -61 13 0 91 81 91 95 0 14 -20 1 -52
-34z"/>
<path d="M623 448 c-10 -14 -10 -76 0 -102 4 -11 18 -16 39 -15 20 1 25 3 12
6 -18 3 -20 10 -17 63 2 46 -1 60 -11 60 -7 0 -18 -6 -23 -12z"/>
<path d="M687 453 c12 -2 24 -12 26 -21 4 -15 5 -15 6 1 0 9 6 17 12 17 6 0 9
-9 6 -19 -6 -24 30 -62 38 -40 2 8 3 23 1 34 -3 11 -5 23 -5 28 -1 4 -25 6
-53 6 -29 -1 -43 -4 -31 -6z"/>
<path d="M795 395 c0 -60 2 -65 20 -63 17 3 21 13 25 66 5 61 5 62 -20 62 -24
0 -25 -2 -25 -65z"/>
<path d="M953 441 c0 -11 5 -18 9 -15 4 3 5 11 1 19 -7 21 -12 19 -10 -4z"/>
<path d="M1115 395 c0 -60 2 -65 22 -65 24 0 51 56 31 62 -6 2 -11 18 -10 36
1 27 -3 32 -21 32 -20 0 -22 -5 -22 -65z"/>
<path d="M1255 395 c0 -63 1 -65 26 -65 23 0 25 3 22 33 l-3 32 17 -32 c11
-23 24 -33 40 -33 22 0 23 0 6 35 -9 19 -23 35 -30 35 -20 0 -16 12 14 37 15
14 20 23 12 23 -8 0 -25 -15 -37 -33 l-24 -32 4 33 c4 29 2 32 -21 32 -25 0
-26 -2 -26 -65z"/>
<path d="M1010 408 c0 -8 -10 -27 -21 -42 -22 -28 -20 -42 4 -33 14 5 31 76
22 86 -3 2 -5 -3 -5 -11z"/>
<path d="M1580 380 c-43 -38 -42 -58 1 -22 65 52 73 61 59 62 -8 0 -35 -18
-60 -40z"/>
<path d="M748 338 c5 -5 16 -8 23 -6 8 3 3 7 -10 11 -17 4 -21 3 -13 -5z"/>
<path d="M1550 302 c-57 -44 -86 -72 -73 -72 11 0 133 86 133 95 0 12 -28 2
-60 -23z"/>
<path d="M1410 265 c-30 -32 -14 -32 25 0 20 17 25 25 14 25 -8 0 -26 -11 -39
-25z"/>
</g>
</svg>
